<svg viewBox='0 0 512 363' xmlns="http://www.w3.org/2000/svg">
	<g>
	  <path id="svg_1" fill="#6A6E7C" d="m509.899994,65.799225c-2.100006,-3 -5.600006,-4.800003 -9.299988,-4.800003l-383.400009,0l-19.5,-53.5c-1.599998,-4.5 -5.900002,-7.5 -10.699997,-7.5l-75.6,0c-6.3,0 -11.4,5.099998 -11.4,11.399994c0,6.300003 5.1,11.400002 11.4,11.400002l67.699999,0l87.099998,238.299995c0.399994,1 1.199997,1.5 1.800003,2.300018c0.799988,1.099976 1.399994,2.399994 2.399994,3.199982c1.899994,1.300018 4.199997,2.100006 6.5,2.100006l4.899994,0c-8.5,9.899994 -13.799988,22.5 -13.799988,36.5c0,31 25.199997,56.299988 56.299988,56.299988s56.300018,-25.199982 56.300018,-56.299988c0,-14 -5.300018,-26.600006 -13.800018,-36.5l75.700012,0c-8.5,9.899994 -13.800018,22.5 -13.800018,36.5c0,31 25.200012,56.299988 56.300018,56.299988s56.299988,-25.199982 56.299988,-56.299988c0,-14 -5.299988,-26.600006 -13.799988,-36.5l7.099976,0c4.800018,0 9.100006,-3 10.700012,-7.5l66.200012,-184.800003c1.099976,-3.699997 0.599976,-7.5 -1.600006,-10.599991zm-285.799988,272.799988c-18.5,0 -33.5,-15 -33.5,-33.5c0,-18.5 15,-33.5 33.5,-33.5s33.5,15 33.5,33.5c0.100006,18.399994 -15,33.5 -33.5,33.5zm160.699982,0c-18.5,0 -33.5,-15 -33.5,-33.5c0,-18.5 15,-33.5 33.5,-33.5s33.5,15 33.5,33.5c0,18.399994 -15,33.5 -33.5,33.5zm41.600006,-92.799988l-241.599991,0l-58,-162l357.699997,0l-58.100006,162z"/>
	</g>
</svg>