<?xml version="1.0" encoding="utf-8"?>
<!-- Generator: Adobe Illustrator 18.1.0, SVG Export Plug-In . SVG Version: 6.00 Build 0)  -->
<svg version="1.1" id="Слой_1" xmlns="http://www.w3.org/2000/svg" xmlns:xlink="http://www.w3.org/1999/xlink" x="0px" y="0px"
	 viewBox="0 0 32 32" enable-background="new 0 0 32 32" xml:space="preserve">
<path d="M31.5,8.4L25.8,0H6.2L0.5,8.4L0,9.1V32h32V9.1L31.5,8.4z M18.5,10.4h5.7v7.9l-2.9-1.7l-2.9,1.7V10.4z M2.9,8.4L7.3,2h17.5
	l4.3,6.3H2.9z M30,29.9H2V10.4h14.5v11.4l4.9-2.9l4.9,2.9V10.4H30V29.9z"/>
<path d="M13.5,14.1H5.8v2h7.7V14.1z"/>
<path d="M5.8,21.2h7.7v-2H5.8V21.2z"/>
<path d="M5.8,26.3h7.7v-2H5.8V26.3z"/>
<path d="M17.5,26.3h7.7v-2h-7.7V26.3z"/>
</svg>
