<?xml version="1.0" encoding="utf-8"?>
<!-- Generator: Adobe Illustrator 18.1.0, SVG Export Plug-In . SVG Version: 6.00 Build 0)  -->
<svg version="1.1" id="Слой_1" xmlns="http://www.w3.org/2000/svg" xmlns:xlink="http://www.w3.org/1999/xlink" x="0px" y="0px"
	 viewBox="0 0 32 24" enable-background="new 0 0 32 24" xml:space="preserve">
<path d="M28.1,5.1h-7.4V0H0v21h3.6c0.4,1.7,2,3,3.9,3c1.9,0,3.4-1.3,3.9-3h9.8c0.5,1.7,2,3,3.9,3c1.9,0,3.4-1.3,3.9-3h3v-7.8
	L28.1,5.1z M2,11.4V7.6L10.6,2h5.7L2,11.4z M2,2h5L2,5.2V2z M9.3,21c-0.3,0.6-1,1-1.7,1c-0.8,0-1.4-0.4-1.8-1
	c-0.2-0.3-0.3-0.6-0.3-1c0-0.4,0.1-0.7,0.3-1c0.3-0.6,1-1,1.8-1c0.8,0,1.4,0.4,1.7,1c0.2,0.3,0.3,0.6,0.3,1
	C9.5,20.3,9.4,20.7,9.3,21z M18.7,19h-7.3c-0.4-1.7-2-3-3.9-3c-1.9,0-3.4,1.3-3.9,3H2v-5.2L18.7,2.9V19z M25.1,22c-1.1,0-2-0.9-2-2
	c0-1.1,0.9-2,2-2c1.1,0,2,0.9,2,2C27.2,21.1,26.3,22,25.1,22z M30,19h-1c-0.4-1.7-2-3-3.9-3c-1.9,0-3.4,1.3-3.9,3h-0.6V7.1h6.1
	l3.2,6.6V19z"/>
</svg>
