<svg viewBox="0 0 500 500" xmlns="http://www.w3.org/2000/svg"><path d="m250,1c-137.532997,0 -249,111.468002 -249,249.002014c0,137.530975 111.467003,248.997986 249,248.997986s249,-111.46701 249,-248.997986c0,-137.534012 -111.46701,-249.002014 -249,-249.002014zm0,478.079987c-126.309998,0 -229.08,-102.770996 -229.08,-229.078003c0,-126.309982 102.770002,-229.081984 229.08,-229.081984c126.30899,0 229.079987,102.770994 229.079987,229.082014c0,126.306976 -102.770996,229.077972 -229.079987,229.077972z"/><polygon points="368.545,157.073 354.461,142.988 255.863,241.587 157.733,143.456 143.648,157.54 241.78,255.672   143.648,353.809 157.733,367.893 255.863,269.75 354.461,368.361 368.545,354.275 269.947,255.672 "/></svg>