<?xml version="1.0" encoding="utf-8"?>
<!-- Generator: Adobe Illustrator 18.1.0, SVG Export Plug-In . SVG Version: 6.00 Build 0)  -->
<svg version="1.1" id="Слой_1" xmlns="http://www.w3.org/2000/svg" xmlns:xlink="http://www.w3.org/1999/xlink" x="0px" y="0px"
	 viewBox="0 0 20 18" enable-background="new 0 0 20 18" xml:space="preserve">
<path d="M20,5.1C20,2.3,17.6,0,14.7,0c-1.9,0-3.7,1-4.7,2.7C9,1,7.3,0,5.3,0C2.4,0,0,2.3,0,5.1c0,0.7,0.2,1.3,0.4,2
	c0.3,0.7,0.7,1.4,1.1,2c2.1,3.4,5.3,6.4,8.5,8.9c3.2-2.5,6.4-5.5,8.5-8.9c0.4-0.6,0.8-1.3,1.1-2C19.8,6.5,20,5.8,20,5.1L20,5.1z"/>
</svg>
