<?xml version="1.0" encoding="utf-8"?>
<!-- Generator: Adobe Illustrator 18.1.0, SVG Export Plug-In . SVG Version: 6.00 Build 0)  -->
<svg viewBox="0 0 15 15"><path fill-rule="evenodd" clip-rule="evenodd" d="M13.7,0H1.3C0.6,0,0,0.6,0,1.3v3.2h4.8c0.8-0.6,1.6-1,2.5-1c0.9,0,1.8,0.5,2.5,1 H15V1.3C15,0.6,14.4,0,13.7,0L13.7,0z M14,3.1c0,0.2-0.2,0.4-0.5,0.4h-2c-0.3,0-0.5-0.2-0.5-0.4V1.5c0-0.2,0.2-0.4,0.5-0.4h2	C13.8,1,14,1.2,14,1.5V3.1L14,3.1z M9.9,7.7c0,1.5-1.1,2.7-2.5,2.7c-1.4,0-2.5-1.2-2.5-2.7c0-1.5,1.1-2.6,2.5-2.6	C8.8,5.1,9.9,6.2,9.9,7.7L9.9,7.7z M11.3,6.7c0.3,0.3,0.4,0.7,0.4,1c0,2.3-1.9,4.2-4.1,4.2c-2.3,0-4.1-1.9-4.1-4.2 c0-0.3,0-0.7,0.1-1H0v7C0,14.4,0.6,15,1.3,15h12.5c0.7,0,1.2-0.6,1.2-1.3v-7H11.3L11.3,6.7z"/></svg>
