<svg viewBox='0 0 17.2 24' xmlns="http://www.w3.org/2000/svg"><path fill='#6c00ff' d="m8.600392,12.38c-2.117008,0 -3.835015,-1.729 -3.835015,-3.862c0,-2.135 1.718008,-3.862999 3.835015,-3.862999s3.835,1.729 3.835,3.862999c0,2.132 -1.717999,3.862 -3.835,3.862m0,-12.38c-4.688014,0 -8.488014,3.827 -8.488014,8.549c0,4.46 3.844,10.212999 6.411006,13.014c0.959005,1.045 2.076008,2.454 2.076008,2.454s1.2,-1.417 2.229,-2.493c2.564997,-2.684 6.258971,-8.073 6.258971,-12.975c0,-4.722 -3.799973,-8.549 -8.486972,-8.549"/></svg>