<?xml version="1.0" encoding="utf-8"?>
<!-- Generator: Adobe Illustrator 18.1.0, SVG Export Plug-In . SVG Version: 6.00 Build 0)  -->
<svg version="1.1" id="Слой_1" xmlns="http://www.w3.org/2000/svg" xmlns:xlink="http://www.w3.org/1999/xlink" x="0px" y="0px"
	 viewBox="0 0 32 26.1" enable-background="new 0 0 32 26.1" xml:space="preserve">
<path d="M6,6.6v2h10.1v-2H6z"/>
<path d="M6,13.6h6.1v-2H6V13.6z"/>
<path d="M31.1,21.1c-1.1-1.1-3-1.1-4.1,0c-0.6,0.6-0.9,1.3-0.9,2.1c0,0.8,0.3,1.5,0.9,2.1c0.6,0.6,1.3,0.9,2.1,0.9
	c0.8,0,1.5-0.3,2.1-0.9c0.6-0.6,0.9-1.3,0.9-2.1C32,22.4,31.7,21.7,31.1,21.1z M29.7,23.9c-0.3,0.3-1,0.3-1.3,0
	c-0.2-0.2-0.3-0.4-0.3-0.7c0-0.2,0.1-0.5,0.3-0.7c0.2-0.2,0.4-0.3,0.7-0.3c0.2,0,0.5,0.1,0.7,0.3c0.2,0.2,0.3,0.4,0.3,0.7
	C30,23.5,29.9,23.7,29.7,23.9z"/>
<path d="M23.1,17.2c1.1-1.1,1.1-3,0-4.1c-1.1-1.1-3-1.1-4.1,0c-0.6,0.6-0.9,1.3-0.9,2.1s0.3,1.5,0.9,2.1c0.6,0.6,1.3,0.9,2.1,0.9
	C21.8,18.1,22.5,17.8,23.1,17.2z M20.4,15.8c-0.2-0.2-0.3-0.4-0.3-0.7c0-0.2,0.1-0.5,0.3-0.7c0.2-0.2,0.4-0.3,0.7-0.3
	c0.2,0,0.5,0.1,0.7,0.3c0.4,0.4,0.4,0.9,0,1.3C21.3,16.2,20.7,16.2,20.4,15.8z"/>
<path d="M29.3,13.3L19.2,23.4l1.4,1.4l10.1-10.1L29.3,13.3z"/>
<path d="M2,17.2V3c0-0.6,0.4-1,1-1h20c0.6,0,1,0.4,1,1v8.2h2V3c0-1.7-1.3-3-3-3H3C1.3,0,0,1.3,0,3v14.2c0,1.7,1.3,3,3,3h14v-2H3
	C2.4,18.2,2,17.7,2,17.2z"/>
</svg>
