<svg viewBox='0 0 22 22' xmlns="http://www.w3.org/2000/svg"><g id="miu" fill-rule="evenodd" fill="none"><path id="common-search-lookup-glyph" fill="#000000" d="m15.577309,13.455971c0.959839,-1.376587 1.522705,-3.050537 1.522705,-4.855957c0,-4.694428 -3.805603,-8.500002 -8.5,-8.500002c-4.694397,0 -8.500002,3.805574 -8.500002,8.500002c0,4.694427 3.805604,8.5 8.500002,8.5c1.805176,0 3.478882,-0.562714 4.855347,-1.522278l0.000549,-0.000519l6.303528,6.303558c0.116882,0.116882 0.302795,0.120453 0.422791,0.000458l1.699036,-1.699005c0.116577,-0.116608 0.111145,-0.311127 -0.000488,-0.422791l-6.303467,-6.303467zm-6.977295,1.644043c3.589844,0 6.5,-2.910156 6.5,-6.5c0,-3.589844 -2.910156,-6.500002 -6.5,-6.500002c-3.589844,0 -6.500002,2.910158 -6.500002,6.500002c0,3.589844 2.910158,6.5 6.500002,6.5z"/></g></svg>