<svg version="1.1" xmlns="http://www.w3.org/2000/svg" viewBox="0 0 114.8 98"><g><g><path d="M54.5,58.3c5-5.9,6-14.2,2.6-20.8c-3.4-6.6-9.8-10.2-17.2-9.6c-7.9,0.6-13.5,7.8-12.2,15.5
			c1.1,6.6,8.2,10.4,14.3,7.5c2.2-1,3.4-2.9,3.7-5.2c0.4-2.7-1.5-4.6-4-4.2c3.2,1.5,3.5,5,0.6,7c-0.9,0.6-2.1,1.1-3.3,1.2
			c-3.7,0.3-6.8-1.4-8.2-4.8c-1.5-3.6-0.8-7,1.7-9.9c3.7-4.3,10-5.4,15.2-2.9c5.5,2.7,9,9.7,7.9,15.6c-2.3,12.1-16.2,18.6-27.2,12.8
			c-14-7.4-15.9-27.2-3.6-37.8C36,13.1,53.4,13.2,65,23.2c7.1,6.1,10.9,14.7,16.3,22.1C76.7,49.8,71,52,65.3,54
			c0.7,0,1.3-0.1,1.9-0.3C74.6,51.8,81,48,87,43.4c4.7-3.6,9.8-6.1,16-5.8c-0.3-0.1-0.5-0.2-0.8-0.3c-4.9-1.2-9.2,0.5-13.3,2.8
			c-1.6,0.9-2.2,0.4-3.2-0.8c-4.5-5.6-8.8-11.5-13.9-16.5C60.6,11.8,47.1,8.1,32,13.4C14.4,19.5,7.1,39.7,16.7,54.9
			C25.4,68.7,44.3,70.4,54.5,58.3z"/><path d="M94.4,37.2c1.3-0.4,2.1-0.4,2.1-0.4s-0.1-1-0.3-1.5c-1.5-6.5-2.3-13-2-19.6c0.1-2.3,0.6-4.6,0.9-7
			c0.2,0,0.3,0,0.4,0c0.3,0.1,0.6,0.2,1,0.2c1.2,0,2.2-1,2.2-2.2s-1-2.2-2.2-2.2c-1.2,0-2.2,1-2.2,2.2c0,0.3,0.1,0.6,0.2,0.8
			C91.9,17.4,92.9,27.2,94.4,37.2z"/><path d="M112.6,0c-1,0-1.8,0.6-2.1,1.5c-0.3,0.3-0.5,0.7-0.7,1.1c-2.5,4.8-5.4,9.5-7.5,14.5
			c-2.6,6.2-4,12.9-5.1,19.6c1.1-0.2,1.8-0.2,2.6-0.1c1.3-11.8,3.7-23.1,10.6-33.2c0.2,0.1,0.3,0.2,0.5,0.3c0.4,0.5,1,0.7,1.7,0.7
			c1.2,0,2.2-1,2.2-2.2S113.8,0,112.6,0z"/><path d="M109,43.1C109,43.1,109,43.1,109,43.1c-0.6-0.3-1.2-0.5-1.9-0.6c-2.5-0.2-4.5,1-6.1,2.7
			c-3,3.3-5.8,6.7-9,9.9c-3.8,3.9-7.5,8.1-11.9,11.2c-8.6,6-18.6,5.8-28.5,4.1c-9.2-1.6-18.5-2.6-27.8-1.1
			c-5.8,0.9-11.4,2.6-16.6,5.4c15.4-4,22.2-4.3,35.9-1.6c5.4,1.1,10.8,2.3,16.3,3.3c2.3,0.4,6.6,0.9,7.9,1c3.7,0.3,4.8,0.2,8,0
			c1.6-0.1,3.2-0.5,4.8-0.8c7.1-1.5,12.7-4.9,14.8-12.4c0.6-2.2,1-4.5,1.4-6.7c0.9-4.4,1.7-8.8,5.2-12c1.2-1.1,2.4-2.2,4.1-2.4
			c0.5-0.1,1.6-0.1,2.2,0.5c-0.1,0.2-0.2,0.4-0.2,0.7c0,0.7,0.6,1.3,1.3,1.3s1.3-0.6,1.3-1.3C110.3,43.7,109.7,43.1,109,43.1z"/></g><g><path d="M6.8,84.4c2.6,0,4.6,1.3,6.1,3.8c0.5,1,0.7,2.1,0.7,3.2v5.7c0,0.5-0.3,0.8-0.9,0.9h-0.1
			c-0.4,0-0.7-0.2-0.9-0.7v-0.1l0.1-1.2v-0.1C10.2,97.3,8.7,98,7,98H6.6c-2.3,0-4.2-1.2-5.8-3.5C0.3,93.4,0,92.3,0,91.2
			c0-2.5,1.2-4.5,3.7-6C4.8,84.7,5.8,84.4,6.8,84.4z M1.9,91.1v0.1c0,2,1,3.5,3,4.5C5.5,95.9,6.1,96,6.6,96H7c1.6,0,3-0.8,4.1-2.5
			c0.4-0.8,0.6-1.5,0.6-2.2v-0.2c0-1.9-0.9-3.4-2.8-4.4c-0.7-0.3-1.3-0.4-2-0.4H6.7c-2,0-3.5,1-4.5,3.1C2,90.1,1.9,90.7,1.9,91.1z"
			/><path d="M25.3,84.3c0.6,0.2,1,0.4,1,0.8v1.1c1.5-1.3,3-2,4.7-2c0.9,0,1.8,0.2,2.9,0.7c0.3,0.3,0.4,0.5,0.4,0.8v0.1
			c-0.1,0.6-0.4,0.9-0.9,0.9h-0.1c-0.9-0.3-1.6-0.4-2.1-0.4h-0.3c-2,0-3.4,1-4.3,3c-0.2,0.5-0.3,1.2-0.3,1.8v5.9
			c0,0.5-0.3,0.8-1,0.9h-0.1c-0.5,0-0.8-0.3-0.9-1V85.5C24.4,84.7,24.7,84.3,25.3,84.3z"/><path d="M45.2,80.9c0.6,0.2,1,0.4,1,0.9v0.3c0,0.5-0.3,0.8-1,0.8c-0.4,0-0.8-0.3-0.9-1
			C44.3,81.3,44.7,80.9,45.2,80.9z M45.2,84.3c0.6,0.2,1,0.4,1,0.9v11.9c0,0.5-0.3,0.8-1,0.9h-0.1c-0.5,0-0.8-0.3-0.9-1V85.5
			C44.3,84.7,44.6,84.3,45.2,84.3z"/><path d="M58.5,84.3c0.6,0.2,1,0.4,1,0.8v1.1c1.5-1.3,3-2,4.7-2c0.9,0,1.8,0.2,2.9,0.7c0.3,0.3,0.4,0.5,0.4,0.8v0.1
			c-0.1,0.6-0.4,0.9-0.9,0.9h-0.1c-0.9-0.3-1.6-0.4-2.1-0.4H64c-2,0-3.4,1-4.3,3c-0.2,0.5-0.3,1.2-0.3,1.8v5.9c0,0.5-0.3,0.8-1,0.9
			h-0.1c-0.5,0-0.8-0.3-0.9-1V85.5C57.6,84.7,57.9,84.3,58.5,84.3z"/><path d="M83.4,84.4c2.6,0,4.6,1.3,6.1,3.8c0.5,1,0.7,2.1,0.7,3.2v5.7c0,0.5-0.3,0.8-0.9,0.9h-0.1
			c-0.4,0-0.7-0.2-0.9-0.7v-0.1l0.1-1.2v-0.1c-1.5,1.4-3,2.1-4.7,2.1h-0.4c-2.3,0-4.2-1.2-5.8-3.5c-0.6-1.1-0.8-2.2-0.8-3.4
			c0-2.5,1.2-4.5,3.7-6C81.4,84.7,82.4,84.4,83.4,84.4z M78.5,91.1v0.1c0,2,1,3.5,3,4.5c0.6,0.2,1.2,0.3,1.7,0.3h0.4
			c1.6,0,3-0.8,4.1-2.5c0.4-0.8,0.6-1.5,0.6-2.2v-0.2c0-1.9-0.9-3.4-2.8-4.4c-0.7-0.3-1.3-0.4-2-0.4h-0.1c-2,0-3.5,1-4.5,3.1
			C78.6,90.1,78.5,90.7,78.5,91.1z"/><path d="M101.6,84.4c0.6,0.2,0.9,0.4,0.9,0.9v1.1c1.4-1.3,3-1.9,4.7-1.9c1.9,0,3.5,0.8,5,2.3
			c1.1,1.3,1.6,2.7,1.6,4.1v6.3c0,0.4-0.3,0.7-0.9,0.8h-0.1c-0.6-0.1-0.9-0.4-0.9-0.9v-5.5c0-2.5-1.1-4.1-3.2-4.9
			c-0.5-0.1-1-0.2-1.4-0.2h-0.1c-1.8,0-3.2,0.9-4.2,2.8c-0.3,0.6-0.4,1.5-0.4,2.7v5.2c0,0.5-0.3,0.8-0.9,0.9h-0.1
			c-0.5,0-0.8-0.3-0.9-1V85.6C100.7,84.8,101,84.4,101.6,84.4z"/></g></g></svg>
