<svg viewBox="0 0 81 65" xmlns="http://www.w3.org/2000/svg"><path id="svg_1" d="m76.558144,28.651196l-62.343987,0l21.45599,-21.456001c1.562,-1.562001 1.562,-4.095 0.000999,-5.657c-1.562,-1.562 -4.095997,-1.562 -5.657988,0l-28.283005,28.284003l0,0c-0.186,0.186001 -0.352,0.390999 -0.498,0.610001c-0.067,0.100998 -0.113999,0.209999 -0.171,0.314999c-0.067,0.123999 -0.142,0.242002 -0.196,0.372997c-0.056,0.134998 -0.088,0.275999 -0.129,0.416c-0.032001,0.110996 -0.075001,0.216995 -0.098001,0.330996c-0.052,0.258993 -0.08,0.520994 -0.08,0.783995l0,0c0,0.002998 0.001,0.005001 0.001,0.008003c0,0.258995 0.027,0.518997 0.078001,0.773998c0.023999,0.120998 0.068999,0.231998 0.103998,0.349003c0.039,0.132996 0.070001,0.267998 0.123,0.396996c0.058001,0.139004 0.136001,0.264999 0.208,0.396004c0.054,0.098 0.096,0.197998 0.159,0.292c0.146999,0.221001 0.314,0.427002 0.500999,0.613998l28.282004,28.280998c1.561995,1.561996 4.094988,1.561996 5.656988,0.000999c1.562,-1.561996 1.562,-4.096001 0,-5.657997l-21.45599,-21.454002l62.342987,0c2.209,0 4,-1.790997 4,-4s-1.791,-3.999989 -4,-3.999989z"/></svg>