<svg viewBox="0 0 495 495" xmlns="http://www.w3.org/2000/svg"><path id="svg_2" fill="#838d8f" d="m248.33801,158.245c16.297,0 29.51999,-13.22299 29.51999,-29.52c0,-16.31699 -13.22299,-29.50099 -29.51999,-29.50099c-16.298,0 -29.52,13.185 -29.52,29.50099c-0.00002,16.29701 13.22198,29.52 29.52,29.52z"/><polygon id="svg_3" points="268.38299560546875,197.60499572753906 268.38299560546875,187.26499938964844 268.38299560546875,177.9250030517578 209.34300231933594,177.9250030517578 209.34300231933594,197.60499572753906 229.0229949951172,197.60499572753906 229.0229949951172,364.885009765625 209.34300231933594,364.885009765625 209.34300231933594,384.56500244140625 288.06298828125,384.56500244140625 288.06298828125,364.885009765625 268.38299560546875,364.885009765625 " fill="#838d8f"/><path id="svg_4" fill="#838d8f" d="m247.108,1.65c-135.85699,0 -246,110.143 -246,245.99999c0,135.87701 110.143,246 246,246c135.85699,0 246,-110.12299 246,-246c0,-135.85699 -110.142,-245.99999 -246,-245.99999zm0,472.32c-124.797,0 -226.32001,-101.53299 -226.32001,-226.32001s101.52401,-226.31999 226.32001,-226.31999c124.797,0 226.32001,101.53301 226.32001,226.32001s-101.52301,226.31999 -226.32001,226.31999z"/></svg>