<svg xml:space="preserve" enable-background="new 0 0 134 135" viewBox="0 0 134 135" xmlns="http://www.w3.org/2000/svg" class="mask" version="1.1" fill="#ffffff"><path d="M113.246,115.802c0.48,2.852,1.035,5.643,2.331,8.083 C118.081,128.598,122,132,122,132s-10.06,0.172-22.313-2.962c-1.232-0.315-2.377-0.784-3.454-1.355							c-8.835,4.304-18.751,6.722-29.233,6.722c-37.003,0-67-30.088-67-67.203V135h134V67.202														C134,86.323,126.025,103.565,113.246,115.802z" clip-rule="evenodd" fill-rule="evenodd"/><path d="M66.969,0H0v67.202C0,30.097,29.98,0.017,66.969,0z" clip-rule="evenodd" fill-rule="evenodd"/><path d="M67.031,0C104.02,0.017,134,30.097,134,67.202V0H67.031z" clip-rule="evenodd" fill-rule="evenodd"/></svg>