<svg viewBox='0 0 14.5 14.5' xmlns="http://www.w3.org/2000/svg"><g><path id="svg_1" d="m13.157906,7.157909c-0.609,0 -0.898,0.429998 -1,0.882997c-0.365,1.632999 -1.916,4.117 -4.999996,4.117c-0.757,0 -1.473,-0.172 -2.114,-0.474l0.528,-0.526c0.359,-0.344 0.586,-0.555 0.586,-1c0,-0.523 -0.438,-1 -1,-1l-3.000002,0c-0.609,0 -1,0.492 -1,1l0,3c0,0.541 0.428,1 1,1c0.484,0 0.688,-0.273 1,-0.594l0.408001,-0.407001c1.050001,0.633 2.277001,1.001 3.592001,1.001c4.989996,0 6.999996,-4.75 6.999996,-5.938c0,-0.725997 -0.531,-1.061996 -1,-1.061996zm-10.999998,-0.883c0.365,-1.632 1.916002,-4.117002 5.000002,-4.117002c0.756997,0 1.472996,0.171 2.113997,0.473l-0.528,0.527c-0.359,0.344001 -0.586,0.555001 -0.586,1.000002c0,0.523 0.438,1 1,1l3,0c0.609,0 1,-0.492 1,-1l0,-3.000002c0,-0.541 -0.428,-1 -1,-1c-0.484,0 -0.688,0.273 -1,0.594l-0.408,0.407c-1.05,-0.633 -2.277,-1.001 -3.591996,-1.001c-4.990002,0 -7.000002,4.750002 -7.000002,5.938002c0,0.726 0.531,1.062 1,1.062c0.609,0 0.898,-0.43 1,-0.883z"/></g></svg>