<?xml version="1.0" encoding="utf-8"?>
<!-- Generator: Adobe Illustrator 18.1.0, SVG Export Plug-In . SVG Version: 6.00 Build 0)  -->
<svg version="1.1" id="Слой_1" xmlns="http://www.w3.org/2000/svg" xmlns:xlink="http://www.w3.org/1999/xlink" x="0px" y="0px"
	 viewBox="0 0 18 18" enable-background="new 0 0 18 18" xml:space="preserve">
<path d="M18,16.1c0-1.2-1.8-1.9-2.8-2.3c-0.6-0.2-1.1-0.5-1.7-0.7c-0.8-0.3-1.5-0.8-2.1-1.4c-0.2-0.2-0.3-0.4-0.3-0.7
	c0-0.4,0.1-0.9,0.2-1.3c0.2-0.7,0.5-1.2,0.8-1.8c0.3-0.8,0.4-1.6,0.6-2.4c0.1-0.3,0.2-0.7,0.2-1C12.8,2.1,11.6,0,9,0
	S5.1,2.1,5.1,4.5c0,0.3,0.1,0.7,0.2,1c0.2,0.8,0.3,1.6,0.6,2.4C6.2,8.5,6.5,9,6.7,9.7c0.1,0.4,0.2,0.9,0.2,1.3
	c0,0.3-0.1,0.5-0.3,0.7c-0.6,0.6-1.3,1-2.1,1.4c-0.6,0.3-1.1,0.5-1.7,0.7c-0.9,0.4-2.8,1-2.8,2.3V18h18v-1.1V16.1L18,16.1z"/>
</svg>
