<?xml version="1.0" encoding="utf-8"?>
<!-- Generator: Adobe Illustrator 18.1.0, SVG Export Plug-In . SVG Version: 6.00 Build 0)  -->
<svg viewBox="0 0 10.2 13.3"><path d="M5.6,13.3c1.6,0,2.9-0.5,3.6-1.3c0.5-0.5,1-1.4,1-2.6c0-1.1-0.4-1.9-0.9-2.4C8.8,6.6,8.1,6.3,7.4,6.2c0.5-0.2,0.8-0.5,1.1-1	c0.3-0.6,0.4-1.1,0.4-1.6c0-1.2-0.4-2-0.8-2.5c-0.8-0.9-2-1-2.9-1H0v13.3H5.6z M3.5,2.7h0.6c0.7,0,1.1,0.2,1.3,0.4 C5.6,3.3,5.7,3.6,5.7,4c0,0.3-0.1,0.7-0.3,0.9c-0.4,0.4-1,0.4-1.3,0.4H3.5V2.7z M3.5,7.8h0.7c0.9,0,1.7,0,2.1,0.4 c0.2,0.2,0.3,0.5,0.3,1c0,0.4-0.1,0.7-0.3,0.9c-0.4,0.4-1.2,0.5-2.1,0.5H3.5V7.8z"/></svg>
